<?xml version="1.0" encoding="UTF-8"?>
<svg width="13px" height="13px" viewBox="0 0 100 100" xmlns="http://www.w3.org/2000/svg">
<path d="m68.647 27.867c-0.45285 0.03271-0.89293 0.23811-1.2132 0.60855l-25.414 29.371-10.423-9.0628c-0.73929-0.64293-1.8598-0.56464-2.5026 0.17475l-4.6558 5.3546c-0.64283 0.73968-0.56464 1.8595 0.17475 2.5029l17.12 14.886c0.73939 0.64244 1.8599 0.56483 2.5028-0.17485l2.0845-2.3978 0.02063-0.00982 2.3825-2.7534 0.16817-0.19352 4.9e-4 -0.00196 26.589-30.731c0.64145-0.74086 0.5609-1.8612-0.18075-2.5024l-5.3654-4.6429c-0.37033-0.32053-0.83595-0.46051-1.2888-0.4278zm-18.691-27.521c0.46002-0.02112 0.92436 0.18153 1.4646 0.63733 2.5325 2.1612 5.0988 4.2886 7.7664 6.247 0.74283 0.54027 1.9922 0.8442 2.9039 0.70913 3.1068-0.47279 6.2129-1.0806 9.2522-1.8235 1.6886-0.40521 2.5658 0.03379 3.2082 1.6884 1.114 2.8702 2.498 5.673 3.613 8.5432 0.50589 1.317 1.3507 1.9585 2.6336 2.2963 3.0727 0.8779 6.1454 1.8573 9.2524 2.6676 1.2829 0.33772 1.7554 1.0131 1.6208 2.2963-0.13556 1.2156-0.23674 2.465-0.33792 3.7144 0.0334-0.06749 0.06778-0.06749 0.06778-0.06749-0.16896 1.891-0.30452 3.8157-0.54027 5.7067-0.20334 1.4521 0.20236 2.5664 1.3163 3.5794 2.3978 2.195 4.6935 4.5586 7.057 6.7873 0.87819 0.8442 1.0138 1.5871 0.33792 2.6339-1.8566 2.8365-3.5786 5.7401-5.4027 8.577-0.64145 0.97937-0.74263 1.891-0.33693 3.0049 1.114 3.1405 2.0933 6.3153 3.2073 9.4214 0.4391 1.2495 0.16896 1.9921-0.97937 2.6002-2.667 1.4862-5.1994 3.1405-7.9008 4.5246-1.7564 0.91257-2.499 2.1955-2.7358 4.0864-0.37132 2.9037-0.94499 5.7741-1.3507 8.6778-0.20236 1.3851-0.87819 1.9253-2.2289 1.9587-3.275 0.10118-6.5167 0.33792-9.7917 0.4057-1.2495 0.0334-2.0933 0.50589-2.8026 1.4853-1.8576 2.5324-3.8497 4.998-5.6731 7.5638-0.94548 1.3507-1.7897 1.6552-3.3091 0.84479-2.7352-1.4519-5.6053-2.6336-8.3742-3.9853-1.2493-0.60707-2.3299-0.67485-3.6468 0-2.9039 1.4862-5.9092 2.7692-8.8469 4.221-1.148 0.57466-1.8572 0.33792-2.5663-0.64145-1.9584-2.667-4.0183-5.3016-5.9429-7.9686-0.74293-1.0138-1.587-1.4528-2.8364-1.4862-3.2078-0.06778-6.4157-0.30354-9.6236-0.37132-1.5194-0.0334-2.1948-0.60805-2.4312-2.1277-0.4389-3.1739-1.0806-6.3143-1.5194-9.4882-0.16886-1.2495-0.74293-2.0265-1.8234-2.6346-2.7352-1.553-5.4027-3.2416-8.2054-4.6935-1.587-0.81041-1.8572-1.7554-1.2494-3.3762 1.1143-2.9381 2.1273-5.943 2.9715-8.9823 0.23635-0.91159 0.10128-2.1611-0.37141-2.9715-1.6208-2.9047-3.4105-5.707-5.2677-8.4422-0.77662-1.148-0.74283-1.8909 0.33772-2.8702 2.4649-2.2286 4.8624-4.5248 7.1247-6.9561 0.64155-0.67534 1.0806-1.8573 1.0806-2.769-0.10128-3.208-0.37141-6.4159-0.70913-9.5901-0.13497-1.5533 0.30393-2.3638 1.891-2.769 3.0053-0.74283 5.943-1.7559 8.9145-2.5663 1.3844-0.37151 2.1948-1.1143 2.7351-2.4313 1.1143-2.8364 2.465-5.5716 3.5118-8.4081 0.64155-1.7559 1.6208-2.0936 3.3429-1.6884 2.9377 0.70913 5.9767 1.1819 8.9144 1.8573 1.4182 0.33772 2.465-0.03379 3.5455-0.94548 2.3974-2.0261 4.93-3.9509 7.2937-5.9769 0.52338-0.439 0.97917-0.68379 1.4393-0.70491z" fill="#01C853"/>
</svg>
