<?xml version="1.0" encoding="UTF-8"?>
<svg width="13px" height="13px" viewBox="0 0 550 550" xmlns="http://www.w3.org/2000/svg">
<path d="m244.46 341.1v45.5h45.44v-45.5h-45.44zm21.67-194.29c-24.8 0-44.82 6.75-60.07 20.24-15.26 13.49-23.48 29.9-24.66 49.22l41.71 5.18c2.92-13.49 8.25-23.53 16.01-30.11 7.76-6.59 17.41-9.88 28.95-9.88 11.96 0 21.48 3.16 28.54 9.47 7.06 6.32 10.59 13.9 10.59 22.75 0 6.37-2 12.2-5.98 17.49-2.59 3.34-10.52 10.41-23.77 21.21-13.26 10.79-22.1 20.5-26.52 29.14-4.42 8.63-6.63 19.64-6.63 33.03 0 1.29 0.05 4.91 0.16 10.85h41.23c-0.21-12.53 0.84-21.21 3.16-26.07 2.31-4.86 8.27-11.28 17.86-19.27 18.54-15.43 30.64-27.63 36.3-36.59s8.49-18.46 8.49-28.49c0-18.14-7.7-34.03-23.12-47.69-15.41-13.65-36.17-20.48-62.25-20.48zm0.14-146.8c2.45-0.113 4.93 0.969 7.81 3.401 13.49 11.534 27.17 22.887 41.39 33.339 3.96 2.883 10.62 4.505 15.48 3.784 16.56-2.523 33.11-5.766 49.31-9.731 9-2.163 13.68 0.18 17.1 9.01 5.94 15.318 13.32 30.279 19.26 45.589 2.7 7.03 7.2 10.46 14.04 12.26 16.37 4.68 32.75 9.91 49.31 14.23 6.84 1.81 9.36 5.41 8.64 12.26-0.72 6.49-1.26 13.15-1.8 19.82 0.18-0.36 0.36-0.36 0.36-0.36-0.9 10.09-1.62 20.37-2.88 30.46-1.08 7.75 1.08 13.69 7.02 19.1 12.78 11.71 25.02 24.33 37.61 36.22 4.68 4.51 5.4 8.47 1.8 14.06-9.9 15.13-19.07 30.63-28.79 45.77-3.42 5.23-3.96 10.09-1.8 16.04 5.94 16.76 11.16 33.7 17.1 50.28 2.34 6.66 0.9 10.63-5.22 13.87-14.22 7.93-27.72 16.76-42.12 24.15-9.36 4.87-13.32 11.71-14.58 21.81-1.98 15.49-5.04 30.81-7.2 46.31-1.08 7.39-4.68 10.27-11.87 10.45-17.46 0.54-34.74 1.8-52.2 2.16-6.66 0.18-11.16 2.71-14.94 7.93-9.9 13.52-20.51 26.67-30.23 40.37-5.04 7.21-9.54 8.83-17.64 4.5-14.58-7.74-29.88-14.05-44.63-21.26-6.66-3.24-12.42-3.6-19.44 0-15.48 7.93-31.5 14.78-47.16 22.53-6.12 3.06-9.9 1.8-13.67-3.43-10.44-14.23-21.42-28.29-31.68-42.53-3.96-5.4-8.46-7.75-15.12-7.93-17.1-0.36-34.19-1.62-51.29-1.98-8.1-0.18-11.7-3.24-12.96-11.35-2.34-16.94-5.76-33.7-8.1-50.64-0.9-6.67-3.96-10.81-9.72-14.06-14.58-8.29-28.8-17.3-43.73-25.05-8.46-4.32-9.9-9.37-6.66-18.02 5.94-15.67 11.34-31.71 15.84-47.93 1.26-4.87 0.54-11.53-1.98-15.86-8.64-15.5-18.18-30.46-28.08-45.05-4.14-6.13-3.96-10.09 1.8-15.32 13.14-11.89 25.92-24.15 37.97-37.12 3.42-3.61 5.76-9.91 5.76-14.78-0.54-17.12-1.98-34.24-3.78-51.18-0.72-8.29 1.62-12.61 10.08-14.78 16.02-3.96 31.68-9.37 47.52-13.69 7.38-1.98 11.7-5.95 14.58-12.98 5.93-15.13 13.13-29.731 18.71-44.869 3.42-9.37 8.64-11.173 17.82-9.01 15.66 3.785 31.86 6.307 47.51 9.912 7.56 1.802 13.14-0.181 18.9-5.046 12.78-10.813 26.28-21.085 38.88-31.897 2.79-2.343 5.22-3.649 7.67-3.762z" fill="#7f7f7f" fill-rule="evenodd"/>
</svg>
